<?xml version="1.0" encoding="UTF-8" standalone="no"?>
<svg
   xmlns:dc="http://purl.org/dc/elements/1.1/"
   xmlns:cc="http://creativecommons.org/ns#"
   xmlns:rdf="http://www.w3.org/1999/02/22-rdf-syntax-ns#"
   xmlns:svg="http://www.w3.org/2000/svg"
   xmlns="http://www.w3.org/2000/svg"
   xmlns:sodipodi="http://sodipodi.sourceforge.net/DTD/sodipodi-0.dtd"
   xmlns:inkscape="http://www.inkscape.org/namespaces/inkscape"
   inkscape:export-ydpi="96"
   inkscape:export-xdpi="96"
   inkscape:export-filename="/Users/ky/Documents/workspace/xcratch/xcx-http-fetch/src/entry/blockIcon.png"
   inkscape:version="1.0 (4035a4f, 2020-05-01)"
   sodipodi:docname="cloud-download.svg"
   id="svg8"
   version="1.1"
   viewBox="0 0 69.320831 69.320835"
   height="262"
   width="262">
  <defs
     id="defs2" />
  <sodipodi:namedview
     inkscape:pagecheckerboard="true"
     fit-margin-bottom="2"
     fit-margin-top="2"
     fit-margin-right="2"
     fit-margin-left="2"
     inkscape:window-maximized="0"
     inkscape:window-y="39"
     inkscape:window-x="469"
     inkscape:window-height="943"
     inkscape:window-width="1367"
     inkscape:snap-object-midpoints="true"
     inkscape:snap-smooth-nodes="true"
     units="px"
     showgrid="false"
     inkscape:document-rotation="0"
     inkscape:current-layer="layer1"
     inkscape:document-units="mm"
     inkscape:cy="131.17524"
     inkscape:cx="113.44363"
     inkscape:zoom="2.4385109"
     inkscape:pageshadow="2"
     inkscape:pageopacity="0.0"
     borderopacity="1.0"
     bordercolor="#666666"
     pagecolor="#ffffff"
     id="base" />
  <metadata
     id="metadata5">
    <rdf:RDF>
      <cc:Work
         rdf:about="">
        <dc:format>image/svg+xml</dc:format>
        <dc:type
           rdf:resource="http://purl.org/dc/dcmitype/StillImage" />
        <dc:title />
      </cc:Work>
    </rdf:RDF>
  </metadata>
  <g
     transform="translate(-29.462165,-11.125649)"
     id="layer1"
     inkscape:groupmode="layer"
     inkscape:label="Layer 1">
    <g
       id="g879">
      <path
         id="path843"
         style="fill:#ffffff;fill-opacity:1;fill-rule:nonzero;stroke:#ffffff;stroke-width:8.46667;stroke-linecap:round;stroke-linejoin:miter;stroke-miterlimit:3;stroke-dasharray:none;stroke-opacity:1"
         d="m 80.430311,57.453592 -8.37976,-10e-7 h -17.837784 -8.70415 c -6.231953,-1e-6 -11.283949,-5.051997 -11.28395,-11.28395 0,-6.231954 5.051996,-11.28395 11.28395,-11.283951 v 0 c -10e-7,-9.377899 8.238106,-16.351705 17.616005,-16.351706 7.537897,-1e-6 13.9286,4.911719 16.146206,11.709257 v 0 c 8.671606,-0.233857 14.743635,6.123881 14.743635,13.6262 0,7.502319 -6.081831,13.58415 -13.584152,13.584151 z"
         sodipodi:nodetypes="ccccsccscccc" />
      <path
         sodipodi:nodetypes="ccsccsccccc"
         d="m 54.212767,57.453591 h -8.70415 c -6.231953,-1e-6 -11.283949,-5.051997 -11.28395,-11.28395 0,-6.231954 5.051996,-11.28395 11.28395,-11.283951 v 0 c -10e-7,-9.377899 8.238106,-16.351705 17.616005,-16.351706 7.537897,-1e-6 13.9286,4.911719 16.146206,11.709257 v 0 c 8.671606,-0.233857 14.743635,6.123881 14.743635,13.6262 0,7.502319 -6.081831,13.58415 -13.584151,13.58415 -2.793253,2e-6 -5.586508,0 -8.379761,0"
         style="fill:none;fill-opacity:1;stroke:#000000;stroke-width:4.7625;stroke-linecap:round;stroke-linejoin:miter;stroke-miterlimit:3;stroke-dasharray:none;stroke-opacity:1"
         id="path1064" />
    </g>
    <g
       id="g883"
       transform="translate(0,4.7624994)">
      <path
         style="fill:none;stroke:#ffffff;stroke-width:8.467;stroke-linecap:round;stroke-linejoin:miter;stroke-miterlimit:3;stroke-dasharray:none;stroke-opacity:1"
         d="M 63.124622,44.999343 V 68.742397"
         id="path845"
         sodipodi:nodetypes="cc" />
      <path
         style="fill:none;stroke:#ffffff;stroke-width:8.46667;stroke-linecap:round;stroke-linejoin:round;stroke-miterlimit:4;stroke-dasharray:none;stroke-opacity:1"
         d="m 52.428036,59.795527 10.696586,8.946869 10.611977,-8.946869"
         id="path885" />
      <path
         sodipodi:nodetypes="cc"
         id="path1066"
         d="M 63.124622,44.999343 V 68.742397"
         style="fill:none;stroke:#000000;stroke-width:4.7625;stroke-linecap:round;stroke-linejoin:miter;stroke-miterlimit:3;stroke-dasharray:none;stroke-opacity:1" />
      <path
         id="path885-4"
         d="m 52.428036,59.795527 10.696586,8.946869 10.611977,-8.946869"
         style="fill:none;stroke:#000000;stroke-width:4.7625;stroke-linecap:round;stroke-linejoin:round;stroke-miterlimit:4;stroke-dasharray:none;stroke-opacity:1" />
    </g>
  </g>
</svg>
