<svg version="1.1" xmlns="http://www.w3.org/2000/svg" xmlns:xlink="http://www.w3.org/1999/xlink" width="89.40113" height="82.84043" viewBox="0,0,89.40113,82.84043"><g transform="translate(-195.29944,-138.57979)"><g data-paper-data="{&quot;isPaintingLayer&quot;:true}" fill-rule="nonzero" stroke="#000000" stroke-width="8" stroke-linecap="round" stroke-dasharray="" stroke-dashoffset="0" style="mix-blend-mode: normal"><path d="M226.51234,195.56708h-11.85031c-8.48452,0 -15.36259,-6.87807 -15.36259,-15.36259c0,-8.48452 6.87807,-15.36259 15.36259,-15.36259v0c0,-12.76759 11.21581,-22.26211 23.9834,-22.26211c10.26251,0 18.96316,6.68709 21.98234,15.94163v0c11.806,-0.31839 20.0728,8.33739 20.0728,18.55146c0,10.21407 -8.28014,18.49421 -18.49421,18.49421c-3.80289,0 -7.60578,0 -11.40867,0" fill="#ffffff" stroke-linejoin="miter" stroke-miterlimit="3"/><path d="M238.64543,185.09511v32.3251" fill="none" stroke-linejoin="miter" stroke-miterlimit="3"/><path d="M253.09316,205.23945l-14.44773,12.18076l-14.56292,-12.18076" fill="none" stroke-linejoin="round" stroke-miterlimit="4"/></g></g></svg>