<?xml version="1.0" encoding="UTF-8" standalone="no"?>
<svg
   xmlns:dc="http://purl.org/dc/elements/1.1/"
   xmlns:cc="http://creativecommons.org/ns#"
   xmlns:rdf="http://www.w3.org/1999/02/22-rdf-syntax-ns#"
   xmlns:svg="http://www.w3.org/2000/svg"
   xmlns="http://www.w3.org/2000/svg"
   xmlns:sodipodi="http://sodipodi.sourceforge.net/DTD/sodipodi-0.dtd"
   xmlns:inkscape="http://www.inkscape.org/namespaces/inkscape"
   width="262"
   height="262"
   viewBox="0 0 69.320831 69.320835"
   version="1.1"
   id="svg8"
   sodipodi:docname="inset-icon.svg"
   inkscape:version="1.0 (4035a4f, 2020-05-01)">
  <defs
     id="defs2">
    <filter
       id="filter1782"
       inkscape:label="Drop Shadow"
       style="color-interpolation-filters:sRGB;">
      <feFlood
         id="feFlood1772"
         result="flood"
         flood-color="rgb(0,0,0)"
         flood-opacity="0.498039" />
      <feComposite
         id="feComposite1774"
         result="composite1"
         operator="in"
         in2="SourceGraphic"
         in="flood" />
      <feGaussianBlur
         id="feGaussianBlur1776"
         result="blur"
         stdDeviation="1.2"
         in="composite1" />
      <feOffset
         id="feOffset1778"
         result="offset"
         dy="0"
         dx="0" />
      <feComposite
         id="feComposite1780"
         result="composite2"
         operator="over"
         in2="offset"
         in="SourceGraphic" />
    </filter>
    <filter
       id="filter1794"
       inkscape:label="Drop Shadow"
       style="color-interpolation-filters:sRGB;">
      <feFlood
         id="feFlood1784"
         result="flood"
         flood-color="rgb(0,0,0)"
         flood-opacity="0.498039" />
      <feComposite
         id="feComposite1786"
         result="composite1"
         operator="in"
         in2="SourceGraphic"
         in="flood" />
      <feGaussianBlur
         id="feGaussianBlur1788"
         result="blur"
         stdDeviation="1.2"
         in="composite1" />
      <feOffset
         id="feOffset1790"
         result="offset"
         dy="0"
         dx="0" />
      <feComposite
         id="feComposite1792"
         result="composite2"
         operator="over"
         in2="offset"
         in="SourceGraphic" />
    </filter>
  </defs>
  <sodipodi:namedview
     id="base"
     pagecolor="#ffffff"
     bordercolor="#666666"
     borderopacity="1.0"
     inkscape:pageopacity="0.0"
     inkscape:pageshadow="2"
     inkscape:zoom="2.5512592"
     inkscape:cx="132.56041"
     inkscape:cy="133.8471"
     inkscape:document-units="mm"
     inkscape:current-layer="layer1"
     inkscape:document-rotation="0"
     showgrid="false"
     units="px"
     inkscape:snap-smooth-nodes="true"
     inkscape:snap-object-midpoints="true"
     inkscape:window-width="1367"
     inkscape:window-height="943"
     inkscape:window-x="0"
     inkscape:window-y="1105"
     inkscape:window-maximized="0"
     fit-margin-left="2"
     fit-margin-right="2"
     fit-margin-top="2"
     fit-margin-bottom="2"
     inkscape:pagecheckerboard="true" />
  <metadata
     id="metadata5">
    <rdf:RDF>
      <cc:Work
         rdf:about="">
        <dc:format>image/svg+xml</dc:format>
        <dc:type
           rdf:resource="http://purl.org/dc/dcmitype/StillImage" />
        <dc:title></dc:title>
      </cc:Work>
    </rdf:RDF>
  </metadata>
  <g
     inkscape:label="Layer 1"
     inkscape:groupmode="layer"
     id="layer1"
     transform="translate(-29.462165,-11.125649)">
    <path
       id="path1262"
       d="m 63.125,16.152344 c -9.826087,1e-6 -18.580412,6.931123 -19.761719,16.570312 -6.501288,1.042441 -11.519531,6.662901 -11.519531,13.447266 1e-6,7.518876 6.145187,13.664061 13.664062,13.664062 h 8.705079 a 2.3812499,2.3812499 0 0 0 2.380859,-2.380859 2.3812499,2.3812499 0 0 0 -2.380859,-2.380859 h -8.705079 c -4.94503,-10e-7 -8.902342,-3.957314 -8.902343,-8.902344 0,-4.945031 3.957312,-8.902343 8.902343,-8.902344 h 2.382813 v -2.382812 c -10e-7,-7.983344 7.037009,-13.96875 15.234375,-13.96875 6.503476,-10e-7 11.978674,4.229726 13.882812,10.066406 l 0.550782,1.689453 1.777344,-0.04883 c 7.479026,-0.201695 12.296874,5.028623 12.296874,11.246094 0,6.215396 -4.987727,11.203125 -11.203124,11.203125 -2.793251,2e-6 -5.585653,0 -8.378907,0 a 2.3812499,2.3812499 0 0 0 -2.380859,2.380859 2.3812499,2.3812499 0 0 0 2.380859,2.380859 c 2.793252,0 5.585651,2e-6 8.378907,0 8.789242,0 15.966796,-7.175601 15.966796,-15.964843 0,-8.311894 -6.586945,-15.374758 -15.644531,-15.898438 C 77.784402,21.070816 71.084345,16.152343 63.125,16.152344 Z"
       style="color:#000000;font-style:normal;font-variant:normal;font-weight:normal;font-stretch:normal;font-size:medium;line-height:normal;font-family:sans-serif;font-variant-ligatures:normal;font-variant-position:normal;font-variant-caps:normal;font-variant-numeric:normal;font-variant-alternates:normal;font-variant-east-asian:normal;font-feature-settings:normal;font-variation-settings:normal;text-indent:0;text-align:start;text-decoration:none;text-decoration-line:none;text-decoration-style:solid;text-decoration-color:#000000;letter-spacing:normal;word-spacing:normal;text-transform:none;writing-mode:lr-tb;direction:ltr;text-orientation:mixed;dominant-baseline:auto;baseline-shift:baseline;text-anchor:start;white-space:normal;shape-padding:0;shape-margin:0;inline-size:0;clip-rule:nonzero;display:inline;overflow:visible;visibility:visible;isolation:auto;mix-blend-mode:normal;color-interpolation:sRGB;color-interpolation-filters:linearRGB;solid-color:#000000;solid-opacity:1;vector-effect:none;fill:#feffff;fill-opacity:1;fill-rule:nonzero;stroke:#b2b2b2;stroke-width:0.529167;stroke-linecap:round;stroke-linejoin:miter;stroke-miterlimit:3;stroke-dasharray:none;stroke-dashoffset:0;stroke-opacity:1;color-rendering:auto;image-rendering:auto;shape-rendering:auto;text-rendering:auto;enable-background:accumulate;stop-color:#000000;filter:url(#filter1782)" />
    <path
       id="path1270"
       d="m 63.125,47.380859 a 2.3812499,2.3812499 0 0 0 -2.380859,2.38086 v 18.646484 l -6.789063,-5.675781 a 2.3812499,2.3812499 0 0 0 -3.353516,0.296875 2.3812499,2.3812499 0 0 0 0.298829,3.355469 l 10.675781,8.929687 a 2.3812499,2.3812499 0 0 0 0.01563,0.01367 l 0.0059,0.0039 a 2.3812499,2.3812499 0 0 0 0.0957,0.07617 2.381488,2.381488 0 0 0 0.0059,0.0039 2.3812499,2.3812499 0 0 0 0.101562,0.07227 2.381488,2.381488 0 0 0 0.0039,0.002 2.3812499,2.3812499 0 0 0 0.105468,0.06641 2.381488,2.381488 0 0 0 0.230469,0.121094 2.381488,2.381488 0 0 0 0.0039,0.002 2.3812499,2.3812499 0 0 0 0.115235,0.04687 2.381488,2.381488 0 0 0 0.08984,0.0332 2.3812499,2.3812499 0 0 0 0.03125,0.01172 2.381488,2.381488 0 0 0 0.0059,0.002 2.3812499,2.3812499 0 0 0 0.24414,0.06445 2.381488,2.381488 0 0 0 0.0059,0.002 2.3812499,2.3812499 0 0 0 0.123047,0.02148 2.381488,2.381488 0 0 0 0.08203,0.01172 2.3812499,2.3812499 0 0 0 0.04687,0.0059 2.381488,2.381488 0 0 0 0.0059,0 2.3812499,2.3812499 0 0 0 0.02344,0.002 2.381488,2.381488 0 0 0 0.1875,0.0098 2.381488,2.381488 0 0 0 0.04687,0 2.3812499,2.3812499 0 0 0 0.05664,-0.002 2.381488,2.381488 0 0 0 0.05859,-0.0039 2.3812499,2.3812499 0 0 0 0.01563,0 2.381488,2.381488 0 0 0 0.09961,-0.0098 2.381488,2.381488 0 0 0 0.128907,-0.01758 2.381488,2.381488 0 0 0 0.126953,-0.02344 2.381488,2.381488 0 0 0 0.09961,-0.02344 2.381488,2.381488 0 0 0 0.02734,-0.0078 2.3812499,2.3812499 0 0 0 0.02734,-0.0078 2.381488,2.381488 0 0 0 0.0957,-0.03125 2.3812499,2.3812499 0 0 0 0.02734,-0.0098 2.381488,2.381488 0 0 0 0.0957,-0.03516 2.3812499,2.3812499 0 0 0 0.02539,-0.0098 2.381488,2.381488 0 0 0 0.0332,-0.01563 2.3812499,2.3812499 0 0 0 0.08594,-0.03906 2.381488,2.381488 0 0 0 0.08984,-0.04492 2.3812499,2.3812499 0 0 0 0.02539,-0.01367 2.381488,2.381488 0 0 0 0.02734,-0.01758 2.3812499,2.3812499 0 0 0 0.08398,-0.04883 2.381488,2.381488 0 0 0 0.08594,-0.05469 2.3812499,2.3812499 0 0 0 0.02344,-0.01563 2.381488,2.381488 0 0 0 0.08008,-0.06055 2.3812499,2.3812499 0 0 0 0.02344,-0.01758 2.381488,2.381488 0 0 0 0.06445,-0.05078 l 10.611328,-8.947266 a 2.3812499,2.3812499 0 0 0 0.285157,-3.355468 2.3812499,2.3812499 0 0 0 -3.355469,-0.285157 l -6.695313,5.644531 V 49.761719 A 2.3812499,2.3812499 0 0 0 63.125,47.380859 Z"
       style="color:#000000;font-style:normal;font-variant:normal;font-weight:normal;font-stretch:normal;font-size:medium;line-height:normal;font-family:sans-serif;font-variant-ligatures:normal;font-variant-position:normal;font-variant-caps:normal;font-variant-numeric:normal;font-variant-alternates:normal;font-variant-east-asian:normal;font-feature-settings:normal;font-variation-settings:normal;text-indent:0;text-align:start;text-decoration:none;text-decoration-line:none;text-decoration-style:solid;text-decoration-color:#000000;letter-spacing:normal;word-spacing:normal;text-transform:none;writing-mode:lr-tb;direction:ltr;text-orientation:mixed;dominant-baseline:auto;baseline-shift:baseline;text-anchor:start;white-space:normal;shape-padding:0;shape-margin:0;inline-size:0;clip-rule:nonzero;display:inline;overflow:visible;visibility:visible;isolation:auto;mix-blend-mode:normal;color-interpolation:sRGB;color-interpolation-filters:linearRGB;solid-color:#000000;solid-opacity:1;vector-effect:none;fill:#ffffff;fill-opacity:1;fill-rule:nonzero;stroke:#b2b2b2;stroke-width:0.529167;stroke-linecap:round;stroke-linejoin:round;stroke-miterlimit:4;stroke-dasharray:none;stroke-dashoffset:0;stroke-opacity:1;color-rendering:auto;image-rendering:auto;shape-rendering:auto;text-rendering:auto;enable-background:accumulate;stop-color:#000000;filter:url(#filter1794)" />
  </g>
</svg>
